<svg width="41" height="41" viewBox="0 0 41 41" fill="none" xmlns="http://www.w3.org/2000/svg">
<path fill-rule="evenodd" clip-rule="evenodd" d="M0.0378876 12C0.0127869 12.33 0 12.6635 0 13V28C0 35.1797 5.8203 41 13 41H20C24.2405 41 28.0067 38.9697 30.3797 35.8282C31.4803 37.155 33.1415 38 35 38C38.3137 38 41 35.3137 41 32C41 28.6863 38.3137 26 35 26C34.2987 26 33.6256 26.1203 33 26.3414V13C33 5.8203 27.1797 0 20 0H13C6.85283 0 1.70219 4.2666 0.34787 10H12C15.866 10 19 13.134 19 17V26C19 28.7614 21.2386 31 24 31H32.1707C32.5826 29.8348 33.6938 29 35 29C36.6569 29 38 30.3432 38 32C38 33.6569 36.6569 35 35 35C33.6938 35 32.5825 34.1652 32.1707 33H24C20.134 33 17 29.866 17 26V17C17 14.2386 14.7614 12 12 12H0.0378876Z" fill="#FFCF2D"/>
</svg>
